<svg width="56" height="24" viewBox="0 0 56 24" fill="none" xmlns="http://www.w3.org/2000/svg">
<path d="M10.1449 6.42857C10.9147 5.09524 12.8392 5.09524 13.609 6.42857L17.8154 13.7143L22.0218 21C22.7916 22.3333 21.8293 24 20.2897 24H3.4641C1.9245 24 0.96225 22.3333 1.73205 21L10.1449 6.42857Z" fill="#0B0B14"/>
<path d="M41.5822 6.41313C42.3501 5.08324 44.2681 5.07895 45.0419 6.40539L49.3054 13.7143L53.4727 21.0078C54.2345 22.3411 53.2717 24 51.7361 24H34.8926C33.353 24 32.3907 22.3333 33.1605 21L41.5822 6.41313Z" fill="#0B0B14"/>
<path d="M29.3234 17.5714C28.5536 18.9048 26.6291 18.9048 25.8593 17.5714L17.4465 3C16.6767 1.66666 17.6389 -1.90735e-06 19.1785 -1.90735e-06L36.0042 -1.90735e-06C37.5438 -1.90735e-06 38.506 1.66666 37.7362 3L33.5298 10.2857L29.3234 17.5714Z" fill="#0B0B14"/>
</svg>
