<svg width="56" height="24" viewBox="0 0 56 24" fill="none" xmlns="http://www.w3.org/2000/svg">
<path d="M20.2897 23H3.4641C2.6943 23 2.21318 22.1667 2.59808 21.5L11.0109 6.92857C11.3958 6.26191 12.358 6.26191 12.7429 6.92857L16.9494 14.2143L21.1558 21.5C21.5407 22.1667 21.0595 23 20.2897 23Z" fill="#0B0B14" stroke="white" stroke-width="2"/>
<path d="M51.7361 23H34.8926C34.1228 23 33.6416 22.1667 34.0265 21.5L42.4483 6.91313C42.8322 6.24819 43.7912 6.24604 44.1781 6.90926L48.4394 14.2144L52.6044 21.5039C52.9853 22.1706 52.5039 23 51.7361 23Z" fill="#0B0B14" stroke="white" stroke-width="2"/>
<path d="M26.7253 17.0714L18.3125 2.5C17.9276 1.83333 18.4087 0.999998 19.1785 0.999998L36.0042 0.999998C36.774 0.999998 37.2551 1.83333 36.8702 2.5L32.6638 9.78571L28.4574 17.0714C28.0725 17.7381 27.1102 17.7381 26.7253 17.0714Z" fill="#0B0B14" stroke="white" stroke-width="2"/>
</svg>
