<svg width="28" height="28" viewBox="0 0 28 28" fill="none" xmlns="http://www.w3.org/2000/svg">
<path d="M6.72999 25.6526C6.79549 26.9705 7.87541 28 9.19751 28H19.2142C20.5363 28 21.6163 26.9706 21.6817 25.6526L23.1245 9.05884H5.28717L6.72999 25.6526ZM16.6765 13.1765H18.3235V22.2353H16.6765V13.1765ZM13.3824 13.1765H15.0294V22.2353H13.3824V13.1765ZM10.0882 13.1765H11.7353V22.2353H10.0882V13.1765Z" fill="black"/>
<path d="M18.3235 4.11765V2.47059C18.3235 1.10836 17.2153 0 15.8529 0H12.5588C11.1966 0 10.0882 1.10836 10.0882 2.47059V4.11765H3.5V7.41177H24.9118V4.11765H18.3235ZM11.7353 4.11765V2.47059C11.7353 2.01649 12.1048 1.64706 12.5588 1.64706H15.8529C16.3071 1.64706 16.6765 2.01649 16.6765 2.47059V4.11765H11.7353Z" fill="black"/>
</svg>
