<svg width="28" height="28" viewBox="0 0 28 28" fill="none" xmlns="http://www.w3.org/2000/svg">
<path d="M22.9997 13.9998C22.4474 13.9998 21.9997 14.4475 21.9997 14.9998V24.9997C21.9997 25.552 21.5519 25.9997 20.9997 25.9997H2.99996C2.44766 25.9997 1.99995 25.552 1.99995 24.9997V4.99996C1.99995 4.44766 2.44766 3.99995 2.99996 3.99995H14.9998C15.5521 3.99995 15.9998 3.55224 15.9998 2.99995C15.9998 2.44765 15.5521 2 14.9998 2H2.99996C1.34313 2 0 3.34313 0 4.99996V24.9997C0 26.6565 1.34313 27.9996 2.99996 27.9996H20.9997C22.6565 27.9996 23.9997 26.6565 23.9997 24.9997V14.9998C23.9997 14.4475 23.552 13.9998 22.9997 13.9998Z" fill="black"/>
<path d="M26.879 1.12137C26.1611 0.403252 25.1872 -0.000101365 24.1717 1.58208e-05C23.1556 -0.00291383 22.1808 0.401143 21.4648 1.12201L8.2929 14.2928C8.18362 14.4029 8.10118 14.5367 8.05191 14.6838L6.05195 20.6837C5.8774 21.2077 6.1607 21.7739 6.6847 21.9484C6.78636 21.9823 6.89282 21.9996 6.99993 21.9997C7.10727 21.9995 7.21397 21.9823 7.31592 21.9487L13.3158 19.9487C13.4632 19.8995 13.5971 19.8167 13.7068 19.7068L26.8786 6.53495C28.3736 5.04012 28.3738 2.61637 26.879 1.12137ZM25.4647 5.12192L12.4648 18.1218L8.58088 19.4187L9.87385 15.5397L22.8787 2.53996C23.5936 1.82642 24.7517 1.82759 25.4653 2.54254C25.8061 2.88408 25.9982 3.34643 25.9996 3.82895C26.0009 4.31404 25.8083 4.7795 25.4647 5.12192Z" fill="black"/>
</svg>
