<svg width="28" height="28" viewBox="0 0 28 28" fill="none" xmlns="http://www.w3.org/2000/svg">
<path d="M25.7102 3.44412C24.2619 1.88854 22.2325 1.00344 20.1063 1.00016C17.9784 1.00262 15.9469 1.88725 14.4964 3.44312L14.0021 3.96512L13.5077 3.44312C10.6295 0.347617 5.78501 0.169847 2.68734 3.04598C2.55008 3.17348 2.4175 3.3059 2.28991 3.44312C-0.763305 6.73404 -0.763305 11.82 2.28991 15.1109L13.2756 26.6877C13.6556 27.0886 14.289 27.1058 14.6902 26.726C14.7034 26.7136 14.7162 26.7008 14.7286 26.6877L25.7103 15.1109C28.7633 11.8203 28.7633 6.73468 25.7102 3.44412ZM24.2622 13.7339L14.0021 24.5467L3.74194 13.7339C1.40946 11.2194 1.40946 7.33367 3.74194 4.81911C5.86012 2.52498 9.43841 2.38113 11.7342 4.49779C11.8457 4.60056 11.9529 4.70773 12.0557 4.81911L13.2756 6.1051C13.6776 6.50424 14.3266 6.50424 14.7286 6.1051L15.9484 4.82011C18.0666 2.52597 21.6449 2.38213 23.9407 4.49879C24.0521 4.60156 24.1594 4.70872 24.2622 4.82011C26.615 7.33865 26.6322 11.2314 24.2622 13.7339Z" fill="white"/>
</svg>
