<svg width="69" height="30" viewBox="0 0 69 30" fill="none" xmlns="http://www.w3.org/2000/svg">
<path d="M13.1141 7.28572C13.8839 5.95239 15.8084 5.95239 16.5782 7.28572L22.2692 17.1429L27.9602 27C28.73 28.3333 27.7678 30 26.2282 30H3.4641C1.9245 30 0.962251 28.3333 1.73205 27L13.1141 7.28572Z" fill="#172FFF"/>
<path d="M52.4085 7.27028C53.1763 5.94039 55.0944 5.9361 55.8681 7.26254L61.6316 17.1429L67.2682 27.0078C68.03 28.3411 67.0672 30 65.5316 30H42.7496C41.21 30 40.2478 28.3333 41.0176 27L52.4085 7.27028Z" fill="#172FFF"/>
<path d="M36.2209 22.7142C35.4511 24.0476 33.5266 24.0476 32.7568 22.7143L21.3747 2.99999C20.6049 1.66666 21.5672 -1.14441e-05 23.1068 -1.14441e-05L45.8709 -1.14441e-05C47.4105 -1.14441e-05 48.3727 1.66666 47.6029 2.99999L41.9119 12.8571L36.2209 22.7142Z" fill="#172FFF"/>
</svg>
