<svg width="28" height="26" viewBox="0 0 28 26" fill="none" xmlns="http://www.w3.org/2000/svg">
<g clip-path="url(#clip0_1008_353)">
<path fill-rule="evenodd" clip-rule="evenodd" d="M21.1096 17.2937C23.8936 12.6538 23.0618 6.53792 18.8657 2.83759C14.1491 -1.32178 6.96773 -0.853994 2.82574 3.88242C-1.31626 8.61882 -0.850428 15.8303 3.8662 19.9896C8.06229 23.69 14.2091 23.7281 18.4311 20.3565L24.2561 25.4933C25.0984 26.236 26.3808 26.1525 27.1204 25.3067C27.86 24.4609 27.7769 23.1732 26.9346 22.4304L21.1096 17.2937ZM11.375 18.6875C15.4136 18.6875 18.6875 15.4136 18.6875 11.375C18.6875 7.33642 15.4136 4.0625 11.375 4.0625C7.33641 4.0625 4.06249 7.33642 4.06249 11.375C4.06249 15.4136 7.33641 18.6875 11.375 18.6875Z" fill="white"/>
</g>
<defs>
<clipPath id="clip0_1008_353">
<rect width="28" height="26" fill="white"/>
</clipPath>
</defs>
</svg>
