<svg width="28" height="28" viewBox="0 0 28 28" fill="none" xmlns="http://www.w3.org/2000/svg">
<path d="M27.2895 9.48339C26.4678 7.79791 25.0562 6.8542 23.6906 5.94049C22.6729 5.2587 21.7132 4.61489 21.0334 3.69318L20.9075 3.52323C20.5076 2.9854 20.0517 2.37558 19.9818 1.86374C19.9118 1.3459 19.5039 0.986013 18.9241 1.00201C18.4002 1.038 17.9944 1.47386 17.9944 1.9997V19.8142C17.1566 19.3064 16.1249 18.9945 14.9953 18.9945C12.2401 18.9945 9.99683 20.7879 9.99683 22.9932C9.99683 25.1985 12.2401 26.992 14.9953 26.992C17.7524 26.992 19.9937 25.1985 19.9937 22.9932V11.3408C21.4953 11.9146 23.9525 13.3762 24.6283 16.7891C24.5024 16.9751 24.3824 17.177 24.2424 17.335C23.8766 17.7488 23.9185 18.3806 24.3324 18.7445C24.7443 19.1124 25.3761 19.0684 25.742 18.6546C26.9936 17.233 27.8553 14.9817 27.9893 12.7804C28.0553 11.6947 27.8133 10.5551 27.2895 9.48339Z" fill="white"/>
<path d="M0.999692 2.99938H12.996C13.5478 2.99938 13.9957 2.55152 13.9957 1.99969C13.9957 1.44786 13.5478 1 12.996 1H0.999692C0.447862 1 0 1.44786 0 1.99969C0 2.55152 0.447862 2.99938 0.999692 2.99938Z" fill="white"/>
<path d="M0.999692 8.99754H12.996C13.5478 8.99754 13.9957 8.54968 13.9957 7.99785C13.9957 7.44602 13.5478 6.99815 12.996 6.99815H0.999692C0.447862 6.99815 0 7.44602 0 7.99785C0 8.54968 0.447862 8.99754 0.999692 8.99754Z" fill="white"/>
<path d="M6.99785 12.9963H0.999693C0.447862 12.9963 0 13.4442 0 13.996C0 14.5478 0.447862 14.9957 0.999693 14.9957H6.99785C7.54968 14.9957 7.99754 14.5478 7.99754 13.996C7.99754 13.4442 7.54968 12.9963 6.99785 12.9963Z" fill="white"/>
<path d="M6.99785 18.9945H0.999693C0.447862 18.9945 0 19.4423 0 19.9942C0 20.546 0.447862 20.9938 0.999693 20.9938H6.99785C7.54968 20.9938 7.99754 20.546 7.99754 19.9942C7.99754 19.4423 7.54968 18.9945 6.99785 18.9945Z" fill="white"/>
</svg>
