<svg width="32" height="32" viewBox="0 0 32 32" fill="none" xmlns="http://www.w3.org/2000/svg">
<path d="M16 32C24.8366 32 32 24.8365 32 16C32 7.16344 24.8366 0 16 0C7.16344 0 3.8147e-06 7.16344 3.8147e-06 16C3.8147e-06 24.8365 7.16344 32 16 32Z" fill="#525967"/>
<path d="M16 1.22293C18.9226 1.22293 21.7796 2.08959 24.2097 3.71331C26.6398 5.33704 28.5338 7.6449 29.6522 10.3451C30.7707 13.0452 31.0633 16.0164 30.4931 18.8829C29.923 21.7493 28.5156 24.3823 26.449 26.449C24.3824 28.5156 21.7493 29.9229 18.8829 30.4931C16.0164 31.0633 13.0452 30.7707 10.3451 29.6522C7.64491 28.5338 5.33705 26.6398 3.71332 24.2097C2.0896 21.7796 1.22294 18.9226 1.22294 16C1.22833 12.0825 2.78693 8.32706 5.55699 5.55699C8.32706 2.78692 12.0825 1.22832 16 1.22293V1.22293ZM16 0C12.8355 0 9.74207 0.938383 7.11088 2.69648C4.4797 4.45459 2.42894 6.95345 1.21793 9.87706C0.00693254 12.8007 -0.309921 16.0177 0.307443 19.1214C0.924806 22.2251 2.44866 25.0761 4.6863 27.3137C6.92394 29.5513 9.77486 31.0752 12.8786 31.6926C15.9823 32.3099 19.1993 31.9931 22.1229 30.7821C25.0466 29.5711 27.5454 27.5203 29.3035 24.8891C31.0616 22.2579 32 19.1645 32 16C32 11.7565 30.3143 7.68687 27.3137 4.68629C24.3131 1.68571 20.2435 0 16 0Z" fill="#454B57"/>
<path d="M12.9427 25.3965C13.7752 25.3965 14.5735 25.0658 15.1622 24.4771C15.7508 23.8885 16.0815 23.0901 16.0815 22.2576V19.0576H12.9427C12.1102 19.0576 11.3118 19.3883 10.7232 19.977C10.1345 20.5656 9.80383 21.364 9.80383 22.1965C9.80383 23.0289 10.1345 23.8273 10.7232 24.416C11.3118 25.0046 12.1102 25.3353 12.9427 25.3353V25.3965Z" fill="#0ACF83"/>
<path d="M9.7223 16.0003C9.73287 15.5881 9.82457 15.1819 9.99215 14.8052C10.1597 14.4284 10.3999 14.0883 10.699 13.8044C10.9981 13.5204 11.3502 13.2982 11.7351 13.1504C12.1201 13.0026 12.5304 12.9321 12.9427 12.943H16V19.0576H12.9427C12.5304 19.0685 12.1201 18.998 11.7351 18.8502C11.3502 18.7024 10.9981 18.4802 10.699 18.1962C10.3999 17.9123 10.1597 17.5722 9.99215 17.1955C9.82457 16.8187 9.73287 16.4125 9.7223 16.0003Z" fill="#A259FF"/>
<path d="M9.7223 9.72231C9.72487 9.30488 9.81068 8.89215 9.9747 8.50829C10.1387 8.12442 10.3777 7.77713 10.6776 7.48674C10.9774 7.19635 11.3322 6.96869 11.7212 6.81709C12.1101 6.66549 12.5254 6.59299 12.9427 6.60384H16V12.9427H12.9427C12.5167 12.9539 12.0929 12.8783 11.6971 12.7204C11.3014 12.5625 10.9419 12.3257 10.6406 12.0244C10.3393 11.7231 10.1025 11.3636 9.94458 10.9678C9.78671 10.5721 9.71108 10.1483 9.7223 9.72231Z" fill="#F24E1E"/>
<path d="M16 6.60376H19.0573C19.8979 6.60376 20.7041 6.93768 21.2985 7.53206C21.8928 8.12644 22.2268 8.9326 22.2268 9.77319C22.2268 10.6138 21.8928 11.4199 21.2985 12.0143C20.7041 12.6087 19.8979 12.9426 19.0573 12.9426H16V6.60376Z" fill="#FF7262"/>
<path d="M22.2777 16.0003C22.2936 16.6208 22.1252 17.2321 21.7937 17.7569C21.4623 18.2817 20.9826 18.6965 20.4155 18.9487C19.8483 19.201 19.2191 19.2794 18.6074 19.1741C17.9957 19.0688 17.4289 18.7845 16.9788 18.3571C16.5286 17.9298 16.2153 17.3785 16.0783 16.7731C15.9414 16.1677 15.9871 15.5352 16.2096 14.9558C16.432 14.3763 16.8213 13.8758 17.3282 13.5175C17.8351 13.1592 18.4368 12.9593 19.0573 12.943C19.4696 12.9321 19.8799 13.0026 20.2649 13.1504C20.6499 13.2982 21.0019 13.5204 21.301 13.8044C21.6001 14.0883 21.8403 14.4284 22.0079 14.8052C22.1754 15.1819 22.2671 15.5881 22.2777 16.0003V16.0003Z" fill="#1ABCFE"/>
</svg>
