<svg width="32" height="32" viewBox="0 0 32 32" fill="none" xmlns="http://www.w3.org/2000/svg">
<path d="M31.4154 14.5761C31.4141 14.5761 31.4141 14.5754 31.4141 14.5754L17.4154 0.567586C16.6602 -0.189412 15.3385 -0.188761 14.5859 0.566935L0.584635 14.5761C0.208333 14.9545 0 15.4568 0 15.9904C0 16.5245 0.208333 17.0274 0.585937 17.4052L14.5846 31.413C14.9622 31.7915 15.4648 32 16 32C16.5352 32 17.0378 31.7915 17.4141 31.4137L31.4141 17.4052C31.7917 17.0274 32 16.5245 32 15.9904C32 15.4568 31.7917 14.9545 31.4154 14.5761Z" fill="#EF473B"/>
<path opacity="0.1" d="M31.5746 16.9199L17.4288 31.0743C17.0486 31.4561 16.5407 31.6667 16 31.6667C15.4593 31.6667 14.9514 31.4561 14.5699 31.0736L0.425374 16.9199C0.260091 16.7545 0.133789 16.5621 0.0358887 16.3569C0.108643 16.7515 0.296305 17.1155 0.585937 17.4053L14.5846 31.4131C14.9622 31.7916 15.4648 32.0001 16 32.0001C16.5352 32.0001 17.0378 31.7916 17.4141 31.4137L31.4141 17.4053C31.7037 17.1155 31.8914 16.7515 31.9642 16.3569C31.8663 16.5621 31.7399 16.7545 31.5746 16.9199Z" fill="#010101"/>
<path d="M22.6667 13.3333C22.1668 13.3333 21.704 13.4801 21.3037 13.7204L18.2796 10.6963C18.5199 10.2961 18.6667 9.83325 18.6667 9.33333C18.6667 7.86263 17.4701 6.66667 16 6.66667C15.5068 6.66667 15.0503 6.81038 14.6536 7.04476L11.3819 3.77271L10.4395 4.71566L13.711 7.98763C13.477 8.38411 13.3333 8.84041 13.3333 9.33333C13.3333 10.5724 14.1867 11.6072 15.3333 11.9053V20.0947C14.1867 20.3928 13.3333 21.4276 13.3333 22.6667C13.3333 24.1374 14.5299 25.3333 16 25.3333C17.4701 25.3333 18.6667 24.1374 18.6667 22.6667C18.6667 21.4276 17.8133 20.3928 16.6667 20.0947V11.9053C16.9023 11.844 17.1234 11.7508 17.3292 11.6313L20.3687 14.6708C20.1405 15.0637 20 15.5138 20 16C20 17.4707 21.1966 18.6667 22.6667 18.6667C24.1367 18.6667 25.3333 17.4707 25.3333 16C25.3333 14.5293 24.1367 13.3333 22.6667 13.3333Z" fill="white"/>
<path opacity="0.2" d="M0.584635 14.9094L14.5859 0.900269C15.3385 0.144572 16.6602 0.143921 17.4154 0.90092L31.4141 14.9087C31.4141 14.9087 31.4141 14.9094 31.4154 14.9094C31.7518 15.2478 31.9447 15.6871 31.9837 16.1571C31.9884 16.1013 32 16.047 32 15.9904C32 15.4568 31.7917 14.9545 31.4154 14.5761C31.4141 14.5761 31.4141 14.5754 31.4141 14.5754L17.4154 0.567586C16.6602 -0.189412 15.3385 -0.188761 14.5859 0.566935L0.584635 14.5761C0.208333 14.9545 0 15.4568 0 15.9904C0 16.0469 0.0116373 16.1012 0.016276 16.1569C0.0554199 15.6869 0.248291 15.2477 0.584635 14.9094Z" fill="white"/>
<path d="M24.7318 14.3339C25.1021 14.7918 25.3333 15.3665 25.3333 16.0001C25.3333 17.4708 24.1367 18.6667 22.6667 18.6667C21.1966 18.6667 20 17.4708 20 16.0001C20 15.5138 20.1405 15.0638 20.3687 14.6709L17.3292 11.6313C17.1234 11.7509 16.9023 11.8441 16.6667 11.9054V20.0948C17.8133 20.3929 18.6667 21.4277 18.6667 22.6667C18.6667 24.1375 17.4701 25.3334 16 25.3334C15.318 25.3334 14.7016 25.0685 14.2295 24.6458L19.2052 29.6215L29.6091 19.2113L24.7318 14.3339ZM18.2796 10.6964L21.3037 13.7205C21.704 13.4801 22.1668 13.3334 22.6667 13.3334C23.3001 13.3334 23.875 13.5648 24.3331 13.9352L18.0962 7.69824L18.0929 7.70093C18.4469 8.15348 18.6667 8.71558 18.6667 9.33341C18.6667 9.83333 18.5199 10.2961 18.2796 10.6964Z" fill="url(#paint0_linear)"/>
<path d="M31.4154 14.5761C31.4141 14.5761 31.4141 14.5754 31.4141 14.5754L17.4154 0.567586C16.6602 -0.189412 15.3385 -0.188761 14.5859 0.566935L0.584635 14.5761C0.208333 14.9545 0 15.4568 0 15.9904C0 16.5245 0.208333 17.0274 0.585937 17.4052L14.5846 31.413C14.9622 31.7915 15.4648 32 16 32C16.5352 32 17.0378 31.7915 17.4141 31.4137L31.4141 17.4052C31.7917 17.0274 32 16.5245 32 15.9904C32 15.4568 31.7917 14.9545 31.4154 14.5761Z" fill="url(#paint1_linear)"/>
<defs>
<linearGradient id="paint0_linear" x1="12.8924" y1="12.9015" x2="24.4088" y2="24.4179" gradientUnits="userSpaceOnUse">
<stop stop-color="#010101" stop-opacity="0.1"/>
<stop offset="1" stop-color="#010101" stop-opacity="0"/>
</linearGradient>
<linearGradient id="paint1_linear" x1="2.68509" y1="9.78658" x2="29.3112" y2="22.2025" gradientUnits="userSpaceOnUse">
<stop stop-color="white" stop-opacity="0.2"/>
<stop offset="1" stop-color="white" stop-opacity="0"/>
</linearGradient>
</defs>
</svg>
