<svg width="32" height="32" viewBox="0 0 32 32" fill="none" xmlns="http://www.w3.org/2000/svg">
<path d="M16 32C7.1648 32 0 24.8352 0 16C0 7.1648 7.1648 0 16 0C24.8352 0 32 7.1648 32 16C32 24.8352 24.8352 32 16 32Z" fill="url(#paint0_linear)"/>
<path d="M15.9999 7.04637C18.9151 7.04637 19.2607 7.05597 20.4127 7.11037C21.4783 7.15837 22.0575 7.33757 22.4415 7.48797C22.9503 7.68637 23.3151 7.92317 23.6959 8.30397C24.0767 8.68477 24.3135 9.04957 24.5119 9.55837C24.6623 9.94237 24.8383 10.5216 24.8895 11.5872C24.9407 12.7392 24.9535 13.0848 24.9535 16C24.9535 18.9152 24.9439 19.2608 24.8895 20.4128C24.8415 21.4784 24.6623 22.0576 24.5119 22.4416C24.3135 22.9504 24.0767 23.3152 23.6959 23.696C23.3151 24.0768 22.9503 24.3136 22.4415 24.512C22.0575 24.6624 21.4783 24.8384 20.4127 24.8896C19.2607 24.9408 18.9151 24.9536 15.9999 24.9536C13.0847 24.9536 12.7391 24.944 11.5871 24.8896C10.5215 24.8416 9.94235 24.6624 9.55835 24.512C9.04955 24.3136 8.68475 24.0768 8.30395 23.696C7.92315 23.3152 7.68635 22.9504 7.48795 22.4416C7.33755 22.0576 7.16155 21.4784 7.11035 20.4128C7.05915 19.2608 7.04635 18.9152 7.04635 16C7.04635 13.0848 7.05595 12.7392 7.11035 11.5872C7.15835 10.5216 7.33755 9.94237 7.48795 9.55837C7.68635 9.04957 7.92315 8.68477 8.30395 8.30397C8.68475 7.92317 9.04955 7.68637 9.55835 7.48797C9.94235 7.33757 10.5215 7.16157 11.5871 7.11037C12.7391 7.05597 13.0847 7.04637 15.9999 7.04637ZM15.9999 5.07837C13.0335 5.07837 12.6623 5.09117 11.4975 5.14557C10.3359 5.19997 9.54235 5.38237 8.84475 5.65437C8.12795 5.92957 7.51675 6.30397 6.91195 6.91197C6.30395 7.51997 5.93275 8.12797 5.65115 8.84797C5.38235 9.54237 5.19675 10.336 5.14235 11.5008C5.08795 12.6656 5.07515 13.0368 5.07515 16.0032C5.07515 18.9696 5.08795 19.3408 5.14235 20.5056C5.19675 21.6672 5.37915 22.4608 5.65115 23.1584C5.92955 23.872 6.30395 24.4832 6.91195 25.088C7.51995 25.696 8.12795 26.0672 8.84795 26.3488C9.54235 26.6176 10.3359 26.8032 11.5007 26.8576C12.6655 26.912 13.0367 26.9248 16.0031 26.9248C18.9695 26.9248 19.3407 26.912 20.5055 26.8576C21.6671 26.8032 22.4607 26.6208 23.1583 26.3488C23.8719 26.0704 24.4831 25.696 25.0879 25.088C25.6959 24.48 26.0671 23.872 26.3487 23.152C26.6175 22.4576 26.8031 21.664 26.8575 20.4992C26.9119 19.3344 26.9247 18.9632 26.9247 15.9968C26.9247 13.0304 26.9119 12.6592 26.8575 11.4944C26.8031 10.3328 26.6207 9.53917 26.3487 8.84157C26.0703 8.12797 25.6959 7.51677 25.0879 6.91197C24.4799 6.30397 23.8719 5.93277 23.1519 5.65117C22.4575 5.38237 21.6639 5.19677 20.4991 5.14237C19.3375 5.09117 18.9663 5.07837 15.9999 5.07837Z" fill="white"/>
<path d="M16 10.3904C12.9024 10.3904 10.3904 12.9024 10.3904 16C10.3904 19.0976 12.9024 21.6096 16 21.6096C19.0976 21.6096 21.6095 19.0976 21.6095 16C21.6095 12.9024 19.0976 10.3904 16 10.3904ZM16 19.6416C13.9904 19.6416 12.3584 18.0128 12.3584 16C12.3584 13.9872 13.9904 12.3584 16 12.3584C18.0096 12.3584 19.6416 13.9872 19.6416 16C19.6416 18.0128 18.0096 19.6416 16 19.6416Z" fill="white"/>
<path d="M21.8304 11.4817C22.555 11.4817 23.1424 10.8943 23.1424 10.1697C23.1424 9.44507 22.555 8.85767 21.8304 8.85767C21.1058 8.85767 20.5184 9.44507 20.5184 10.1697C20.5184 10.8943 21.1058 11.4817 21.8304 11.4817Z" fill="white"/>
<defs>
<linearGradient id="paint0_linear" x1="4.68629" y1="27.3137" x2="27.3137" y2="4.68629" gradientUnits="userSpaceOnUse">
<stop stop-color="#FFD521"/>
<stop offset="0.0551048" stop-color="#FFD020"/>
<stop offset="0.1241" stop-color="#FEC01E"/>
<stop offset="0.2004" stop-color="#FCA71B"/>
<stop offset="0.2821" stop-color="#FA8316"/>
<stop offset="0.3681" stop-color="#F85510"/>
<stop offset="0.4563" stop-color="#F51E09"/>
<stop offset="0.5" stop-color="#F30005"/>
<stop offset="0.5035" stop-color="#F20007"/>
<stop offset="0.5966" stop-color="#E1003B"/>
<stop offset="0.6879" stop-color="#D30067"/>
<stop offset="0.7757" stop-color="#C70088"/>
<stop offset="0.8589" stop-color="#BF00A0"/>
<stop offset="0.9357" stop-color="#BB00AF"/>
<stop offset="1" stop-color="#B900B4"/>
</linearGradient>
</defs>
</svg>
