<svg width="68" height="62" viewBox="0 0 68 62" fill="none" xmlns="http://www.w3.org/2000/svg">
<path fill-rule="evenodd" clip-rule="evenodd" d="M39.0222 39.8961C39.4 40.0441 39.8308 40.0346 40.2121 39.8501L45.15 37.4603C45.6688 37.2092 45.9988 36.681 45.9988 36.1015V19.8972C45.9988 19.3177 45.6688 18.7896 45.15 18.5384L40.2121 16.1486C39.7117 15.9064 39.126 15.9657 38.6869 16.2868C38.6242 16.3327 38.5644 16.3839 38.5084 16.4404L29.0552 25.1145L24.9376 21.9709C24.5543 21.6782 24.0182 21.7022 23.6622 22.0279L22.3416 23.2362C21.9061 23.6346 21.9056 24.3236 22.3405 24.7227L25.9114 27.9993L22.3405 31.276C21.9056 31.675 21.9061 32.3641 22.3416 32.7625L23.6622 33.9707C24.0182 34.2964 24.5543 34.3204 24.9376 34.0278L29.0552 30.8841L38.5084 39.5583C38.6579 39.7088 38.8335 39.8221 39.0222 39.8961ZM40.0064 22.5231L32.8337 27.9993L40.0064 33.4755V22.5231Z" fill="white"/>
<path d="M45.1501 18.5432L40.2083 16.15C39.6363 15.873 38.9527 15.9899 38.5037 16.4414L22.3261 31.277C21.891 31.6761 21.8915 32.3651 22.3272 32.7635L23.6486 33.9717C24.0048 34.2975 24.5413 34.3214 24.9248 34.0288L44.4065 19.164C45.06 18.6653 45.9988 19.1342 45.9988 19.9593V19.9016C45.9988 19.3224 45.6689 18.7944 45.1501 18.5432Z" fill="#0065A9"/>
<g filter="url(#filter0_d)">
<path d="M45.15 37.4563L40.2082 39.8495C39.6363 40.1264 38.9526 40.0096 38.5037 39.5581L22.326 24.7225C21.8909 24.3235 21.8914 23.6344 22.3271 23.236L23.6486 22.0278C24.0048 21.702 24.5412 21.6781 24.9248 21.9707L44.4064 36.8354C45.06 37.3341 45.9987 36.8653 45.9987 36.0401V36.0979C45.9987 36.677 45.6688 37.205 45.15 37.4563Z" fill="#007ACC"/>
</g>
<path d="M40.2085 39.8501C39.6363 40.1268 38.9527 40.0099 38.5038 39.5583C39.0569 40.1147 40.0028 39.7206 40.0028 38.9338V17.0649C40.0028 16.2781 39.0569 15.884 38.5038 16.4404C38.9527 15.9888 39.6363 15.8718 40.2085 16.1486L45.1494 18.5384C45.6686 18.7896 45.9988 19.3177 45.9988 19.8972V36.1016C45.9988 36.681 45.6686 37.2091 45.1494 37.4603L40.2085 39.8501Z" fill="#1F9CF0"/>
<path style="mix-blend-mode:overlay" opacity="0.25" fill-rule="evenodd" clip-rule="evenodd" d="M39.018 39.8971C39.396 40.045 39.8271 40.0356 40.2085 39.8511L45.1495 37.4612C45.6687 37.2101 45.9989 36.6819 45.9989 36.1025V19.8982C45.9989 19.3187 45.6687 18.7905 45.1495 18.5394L40.2085 16.1495C39.7079 15.9074 39.1219 15.9667 38.6824 16.2878C38.6197 16.3337 38.5599 16.3849 38.5038 16.4414L29.0449 25.1155L24.9248 21.9718C24.5413 21.6792 24.0048 21.7032 23.6486 22.0289L22.3272 23.2372C21.8915 23.6356 21.891 24.3246 22.3261 24.7236L25.8992 28.0003L22.3261 31.277C21.891 31.676 21.8915 32.3651 22.3272 32.7635L23.6486 33.9717C24.0048 34.2974 24.5413 34.3214 24.9248 34.0288L29.0449 30.8851L38.5038 39.5593C38.6534 39.7098 38.8292 39.8231 39.018 39.8971ZM40.0028 22.5241L32.8257 28.0003L40.0028 33.4765V22.5241Z" fill="url(#paint0_linear)"/>
<defs>
<filter id="filter0_d" x="0.666599" y="0.432957" width="66.6655" height="60.8987" filterUnits="userSpaceOnUse" color-interpolation-filters="sRGB">
<feFlood flood-opacity="0" result="BackgroundImageFix"/>
<feColorMatrix in="SourceAlpha" type="matrix" values="0 0 0 0 0 0 0 0 0 0 0 0 0 0 0 0 0 0 127 0"/>
<feOffset/>
<feGaussianBlur stdDeviation="10.6667"/>
<feColorMatrix type="matrix" values="0 0 0 0 0 0 0 0 0 0 0 0 0 0 0 0 0 0 0.25 0"/>
<feBlend mode="overlay" in2="BackgroundImageFix" result="effect1_dropShadow"/>
<feBlend mode="normal" in="SourceGraphic" in2="effect1_dropShadow" result="shape"/>
</filter>
<linearGradient id="paint0_linear" x1="33.9995" y1="16.001" x2="33.9995" y2="39.9996" gradientUnits="userSpaceOnUse">
<stop stop-color="white"/>
<stop offset="1" stop-color="white" stop-opacity="0"/>
</linearGradient>
</defs>
</svg>
