<svg width="32" height="32" viewBox="0 0 32 32" fill="none" xmlns="http://www.w3.org/2000/svg">
<path fill-rule="evenodd" clip-rule="evenodd" d="M21.0222 27.8961C21.4 28.0441 21.8308 28.0346 22.2121 27.8501L27.15 25.4603C27.6688 25.2092 27.9988 24.681 27.9988 24.1015V7.89718C27.9988 7.31774 27.6688 6.78957 27.15 6.53844L22.2121 4.14857C21.7117 3.9064 21.126 3.96572 20.6869 4.28684C20.6242 4.33271 20.5644 4.38393 20.5084 4.44038L11.0552 13.1145L6.93764 9.97088C6.55434 9.67823 6.0182 9.70221 5.6622 10.0279L4.34156 11.2362C3.90611 11.6346 3.90561 12.3236 4.34048 12.7227L7.91138 15.9993L4.34048 19.276C3.90561 19.675 3.90611 20.3641 4.34156 20.7625L5.6622 21.9707C6.0182 22.2964 6.55434 22.3204 6.93764 22.0278L11.0552 18.8841L20.5084 27.5583C20.6579 27.7088 20.8335 27.8221 21.0222 27.8961ZM22.0064 10.5231L14.8337 15.9993L22.0064 21.4755V10.5231Z" fill="white"/>
<path d="M27.1501 6.54319L22.2083 4.15002C21.6363 3.87301 20.9527 3.98986 20.5037 4.44138L4.32611 19.277C3.89097 19.6761 3.89147 20.3651 4.32719 20.7635L5.64863 21.9717C6.00485 22.2975 6.54132 22.3214 6.92485 22.0288L26.4065 7.16404C27.06 6.66535 27.9988 7.1342 27.9988 7.95932V7.90162C27.9988 7.32243 27.6689 6.79444 27.1501 6.54319Z" fill="#0065A9"/>
<path d="M27.15 25.4563L22.2082 27.8495C21.6363 28.1264 20.9526 28.0096 20.5037 27.5581L4.32603 12.7225C3.89089 12.3235 3.89139 11.6344 4.32711 11.236L5.64855 10.0278C6.00477 9.70205 6.54124 9.67807 6.92477 9.97072L26.4064 24.8354C27.06 25.3341 27.9987 24.8653 27.9987 24.0401V24.0979C27.9987 24.677 27.6688 25.205 27.15 25.4563Z" fill="#007ACC"/>
<path d="M22.2085 27.8501C21.6363 28.1268 20.9527 28.0099 20.5038 27.5583C21.0569 28.1147 22.0028 27.7206 22.0028 26.9338V5.06488C22.0028 4.27805 21.0569 3.884 20.5038 4.44038C20.9527 3.98882 21.6363 3.87181 22.2085 4.14857L27.1494 6.53845C27.6686 6.78957 27.9988 7.31774 27.9988 7.89719V24.1016C27.9988 24.681 27.6686 25.2091 27.1494 25.4603L22.2085 27.8501Z" fill="#1F9CF0"/>
<path style="mix-blend-mode:overlay" opacity="0.25" fill-rule="evenodd" clip-rule="evenodd" d="M21.018 27.8971C21.396 28.045 21.8271 28.0356 22.2085 27.8511L27.1495 25.4612C27.6687 25.2101 27.9989 24.6819 27.9989 24.1025V7.89816C27.9989 7.31871 27.6687 6.79054 27.1495 6.53942L22.2085 4.14955C21.7079 3.90738 21.1219 3.96669 20.6824 4.28782C20.6197 4.33369 20.5599 4.38491 20.5038 4.44135L11.0449 13.1155L6.92485 9.97185C6.54132 9.67921 6.00484 9.70319 5.64863 10.0289L4.32719 11.2372C3.89147 11.6356 3.89097 12.3246 4.32611 12.7236L7.89919 16.0003L4.32611 19.277C3.89097 19.676 3.89147 20.3651 4.32719 20.7635L5.64863 21.9717C6.00484 22.2974 6.54132 22.3214 6.92485 22.0288L11.0449 18.8851L20.5038 27.5593C20.6534 27.7098 20.8292 27.8231 21.018 27.8971ZM22.0028 10.5241L14.8257 16.0003L22.0028 21.4765V10.5241Z" fill="url(#paint0_linear_701_460)"/>
<defs>
<linearGradient id="paint0_linear_701_460" x1="15.9995" y1="4.00098" x2="15.9995" y2="27.9996" gradientUnits="userSpaceOnUse">
<stop stop-color="white"/>
<stop offset="1" stop-color="white" stop-opacity="0"/>
</linearGradient>
</defs>
</svg>
