<svg width="28" height="28" viewBox="0 0 28 28" fill="none" xmlns="http://www.w3.org/2000/svg">
<path d="M25.7102 3.44412C24.2619 1.88854 22.2325 1.00344 20.1063 1.00016C17.9784 1.00262 15.9469 1.88725 14.4964 3.44312L14.0021 3.96512L13.5077 3.44312C10.6295 0.347617 5.78501 0.169847 2.68734 3.04598C2.55008 3.17348 2.4175 3.3059 2.28991 3.44312C-0.763305 6.73404 -0.763305 11.82 2.28991 15.1109L13.2756 26.6877C13.6556 27.0886 14.289 27.1058 14.6902 26.726C14.7034 26.7136 14.7162 26.7008 14.7286 26.6877L25.7103 15.1109C28.7633 11.8203 28.7633 6.73468 25.7102 3.44412Z" fill="white"/>
</svg>
