<svg width="28" height="28" viewBox="0 0 28 28" fill="none" xmlns="http://www.w3.org/2000/svg">
<path d="M22.3587 27.6896C22.5531 27.8965 22.8046 27.9999 23.0617 27.9999C23.3075 27.9999 23.559 27.9026 23.7476 27.7018L27.7084 23.5775C27.897 23.3828 27.9999 23.1151 27.9999 22.8292C27.9999 22.5433 27.8913 22.2818 27.7084 22.081L23.7476 17.9567C23.359 17.5552 22.7417 17.5613 22.3587 17.9688C21.9815 18.3825 21.9872 19.0394 22.3702 19.447L24.6106 21.7829H22.1244C20.6098 21.7829 19.1867 21.0712 18.2093 19.8363L9.579 7.33552C8.25873 5.34634 6.104 4.15405 3.81782 4.15405H0.982958C0.43999 4.15405 0.00561523 4.62245 0.00561523 5.20035C0.00561523 5.77825 0.445705 6.24056 0.982958 6.24056H3.81782C5.46959 6.24056 7.02991 7.09828 7.9901 8.55215L16.6547 21.1016C16.6662 21.1199 16.6776 21.132 16.689 21.1503C18.0379 22.884 20.0154 23.8816 22.1301 23.8816H24.6164L22.3759 26.2175C21.9815 26.619 21.9758 27.276 22.3587 27.6896Z" fill="white"/>
<path d="M27.7028 4.45212L23.7191 0.297351C23.3305 -0.104135 22.7132 -0.0980518 22.3303 0.309517C21.953 0.72317 21.9587 1.38015 22.3417 1.78772L24.6107 4.15405H22.1245C20.0155 4.15405 18.0322 5.1456 16.6834 6.87929C16.672 6.89145 16.6605 6.9097 16.6491 6.92795L15.0259 9.28212C14.7058 9.74444 14.7973 10.4014 15.2374 10.7421C15.4146 10.8759 15.6146 10.9428 15.8146 10.9428C16.1176 10.9428 16.4148 10.7968 16.6034 10.517L18.2094 8.19324C19.181 6.95229 20.6042 6.24664 22.1245 6.24664H24.6107L22.3417 8.61298C21.953 9.01446 21.9473 9.67752 22.3303 10.0912C22.5246 10.298 22.7761 10.4014 23.0333 10.4014C23.279 10.4014 23.5305 10.3041 23.7191 10.1033L27.7028 5.94857C27.8914 5.75391 27.9943 5.48625 27.9943 5.20035C27.9943 4.91444 27.8914 4.64678 27.7028 4.45212Z" fill="white"/>
<path d="M9.57338 20.7001L10.9965 18.644C11.3166 18.1817 11.2251 17.5247 10.7851 17.184C10.3507 16.8434 9.73341 16.9407 9.41335 17.4091L7.98449 19.4835C7.97877 19.4956 7.97306 19.5017 7.96734 19.5139C7.01286 20.9373 5.45826 21.789 3.81221 21.789H0.977342C0.434374 21.789 0 22.2574 0 22.8353C0 23.4132 0.44009 23.8755 0.977342 23.8755H3.81221C6.09839 23.8755 8.25311 22.6893 9.57338 20.7001Z" fill="white"/>
</svg>
