<svg width="28" height="28" viewBox="0 0 28 28" fill="none" xmlns="http://www.w3.org/2000/svg">
<path d="M27.2895 9.48336C26.4678 7.79788 25.0562 6.85417 23.6906 5.94045C22.6729 5.25867 21.7132 4.61486 21.0334 3.69315L20.9075 3.5232C20.5076 2.98537 20.0517 2.37555 19.9818 1.86371C19.9118 1.34587 19.5039 0.985982 18.9241 1.00198C18.4002 1.03797 17.9944 1.47383 17.9944 1.99967V19.8142C17.1566 19.3063 16.1249 18.9944 14.9953 18.9944C12.2401 18.9944 9.99683 20.7879 9.99683 22.9932C9.99683 25.1985 12.2401 26.992 14.9953 26.992C17.7524 26.992 19.9937 25.1985 19.9937 22.9932V11.3408C21.4953 11.9146 23.9525 13.3762 24.6283 16.7891C24.5024 16.9751 24.3824 17.177 24.2424 17.3349C23.8766 17.7488 23.9185 18.3806 24.3324 18.7445C24.7443 19.1124 25.3761 19.0684 25.742 18.6545C26.9936 17.233 27.8553 14.9817 27.9893 12.7803C28.0553 11.6947 27.8133 10.555 27.2895 9.48336Z" fill="black"/>
<path d="M6.99785 12.9963H0.999693C0.447862 12.9963 0 13.4441 0 13.996C0 14.5478 0.447862 14.9957 0.999693 14.9957H6.99785C7.54968 14.9957 7.99754 14.5478 7.99754 13.996C7.99754 13.4441 7.54968 12.9963 6.99785 12.9963Z" fill="black"/>
<circle cx="1" cy="8" r="1" fill="black"/>
<path d="M6.99785 18.9944H0.999693C0.447862 18.9944 0 19.4423 0 19.9941C0 20.546 0.447862 20.9938 0.999693 20.9938H6.99785C7.54968 20.9938 7.99754 20.546 7.99754 19.9941C7.99754 19.4423 7.54968 18.9944 6.99785 18.9944Z" fill="black"/>
<rect y="1" width="7" height="2" rx="1" fill="black"/>
<rect x="8.75" y="1" width="2.5" height="12" rx="1.25" fill="black"/>
<rect x="4" y="8.25" width="2.5" height="12" rx="1.25" transform="rotate(-90 4 8.25)" fill="black"/>
</svg>
